<svg xmlns="http://www.w3.org/2000/svg" xmlns:xlink="http://www.w3.org/1999/xlink" width="30" height="30" viewBox="0 0 30 30">
  <defs>
    <clipPath id="clip-path">
      <path id="path273" d="M0-682.665H30v30H0Z" transform="translate(0 682.665)" fill="#f2b705"/>
    </clipPath>
  </defs>
  <g id="Calendar" transform="translate(-1198 -4431)">
    <g id="g267" transform="translate(1198 4431)">
      <g id="g269" transform="translate(0 0)">
        <g id="g271" clip-path="url(#clip-path)">
          <g id="g277" transform="translate(6.152 4.453)">
            <path id="path279" d="M22.969-416.4H0a.75.75,0,0,1-.75-.75v-3.516a.75.75,0,0,1,.75-.75.75.75,0,0,1,.75.75v2.766H22.219v-16.078H0a.75.75,0,0,1-.75-.75V-440a.75.75,0,0,1,.75-.75H22.969a.75.75,0,0,1,.75.75v22.852A.75.75,0,0,1,22.969-416.4ZM.75-435.475H22.219v-3.774H.75Z" transform="translate(0 439.999)" fill="#f2b705"/>
          </g>
          <g id="g281" transform="translate(11.484 2.695)">
            <path id="path283" d="M0,4.266a.75.75,0,0,1-.75-.75V0A.75.75,0,0,1,0-.75.75.75,0,0,1,.75,0V3.516A.75.75,0,0,1,0,4.266Z" fill="#f2b705"/>
          </g>
          <g id="g285" transform="translate(23.848 2.695)">
            <path id="path287" d="M0,4.266a.75.75,0,0,1-.75-.75V0A.75.75,0,0,1,0-.75.75.75,0,0,1,.75,0V3.516A.75.75,0,0,1,0,4.266Z" fill="#f2b705"/>
          </g>
          <g id="g289" transform="translate(17.637 2.695)">
            <path id="path291" d="M0,4.266a.75.75,0,0,1-.75-.75V0A.75.75,0,0,1,0-.75.75.75,0,0,1,.75,0V3.516A.75.75,0,0,1,0,4.266Z" transform="translate(0)" fill="#f2b705"/>
          </g>
          <g id="g293" transform="translate(0.879 9.727)">
            <path id="path295" d="M-97.031,14.813H-120a.75.75,0,0,1-.705-.495.75.75,0,0,1,.225-.831,12.907,12.907,0,0,0,2.5-3.268A20.6,20.6,0,0,0-115.476,0a.75.75,0,0,1,.75-.75.75.75,0,0,1,.75.75,22.062,22.062,0,0,1-2.736,11.029,16.942,16.942,0,0,1-1.556,2.284h20.945a13.9,13.9,0,0,0,2.316-3.095A20.6,20.6,0,0,0-92.507,0a.75.75,0,0,1,.75-.75.75.75,0,0,1,.75.75,22.062,22.062,0,0,1-2.736,11.029,14,14,0,0,1-2.808,3.61A.75.75,0,0,1-97.031,14.813Z" transform="translate(120)" fill="#f2b705"/>
          </g>
        </g>
      </g>
    </g>
  </g>
</svg>
