<svg id="copyright" xmlns="http://www.w3.org/2000/svg" width="30" height="30" viewBox="0 0 30 30">
  <path id="Path_17293" data-name="Path 17293" d="M15,30A15,15,0,1,1,30,15,15.017,15.017,0,0,1,15,30ZM15,1.875A13.125,13.125,0,1,0,28.125,15,13.14,13.14,0,0,0,15,1.875Z" fill="#f2b705"/>
  <path id="Path_17294" data-name="Path 17294" d="M118.341,125.787a7.482,7.482,0,1,1,5.371-12.717l-1.343,1.308a5.612,5.612,0,1,0,0,7.853l1.342,1.31A7.476,7.476,0,0,1,118.341,125.787Z" transform="translate(-103.336 -103.305)" fill="#f2b705"/>
</svg>
