<svg xmlns="http://www.w3.org/2000/svg" xmlns:xlink="http://www.w3.org/1999/xlink" width="30" height="30" viewBox="0 0 30 30">
  <defs>
    <clipPath id="clip-path">
      <rect id="Rectangle_301" data-name="Rectangle 301" width="30" height="30" transform="translate(1196 4508)" fill="#f2b705"/>
    </clipPath>
  </defs>
  <g id="email" transform="translate(-1196 -4508)" clip-path="url(#clip-path)">
    <g id="email-2" data-name="email" transform="translate(1196 4512.453)">
      <g id="Group_6860" data-name="Group 6860" transform="translate(0 0)">
        <path id="Path_17295" data-name="Path 17295" d="M27.363,76H2.637A2.64,2.64,0,0,0,0,78.637v15.82a2.64,2.64,0,0,0,2.637,2.637H27.363A2.64,2.64,0,0,0,30,94.457V78.637A2.64,2.64,0,0,0,27.363,76Zm-.4,1.758L15.681,89.072a1.026,1.026,0,0,1-1.362,0L3.042,77.758ZM1.758,94.134V78.96L9.32,86.547Zm1.284,1.2,7.52-7.544,2.513,2.521a2.782,2.782,0,0,0,3.852,0l2.513-2.521,7.52,7.544Zm25.2-1.2L20.68,86.547l7.562-7.587Z" transform="translate(0 -76)" fill="#f2b705"/>
      </g>
    </g>
  </g>
</svg>
