<svg xmlns="http://www.w3.org/2000/svg" xmlns:xlink="http://www.w3.org/1999/xlink" width="30" height="30" viewBox="0 0 30 30">
  <defs>
    <clipPath id="clip-path">
      <rect id="Rectangle_302" data-name="Rectangle 302" width="30" height="30" transform="translate(1133 4459)" fill="#f2b705"/>
    </clipPath>
  </defs>
  <g id="location" transform="translate(-1133 -4459)" clip-path="url(#clip-path)">
    <g id="placeholder" transform="translate(1137.453 4459)">
      <g id="Group_6863" data-name="Group 6863" transform="translate(0)">
        <g id="Group_6862" data-name="Group 6862">
          <path id="Path_17299" data-name="Path 17299" d="M86.547,0a10.549,10.549,0,0,0-8.972,16.093l8.372,13.492a.879.879,0,0,0,.747.415H86.7a.879.879,0,0,0,.747-.427L95.606,15.95A10.549,10.549,0,0,0,86.547,0ZM94.1,15.048,86.68,27.433,79.068,15.167A8.795,8.795,0,1,1,94.1,15.048Z" transform="translate(-76)" fill="#f2b705"/>
        </g>
      </g>
      <g id="Group_6865" data-name="Group 6865" transform="translate(5.273 5.273)">
        <g id="Group_6864" data-name="Group 6864">
          <path id="Path_17300" data-name="Path 17300" d="M171.273,90a5.273,5.273,0,1,0,5.273,5.273A5.279,5.279,0,0,0,171.273,90Zm0,8.8a3.527,3.527,0,1,1,3.521-3.527A3.53,3.53,0,0,1,171.273,98.8Z" transform="translate(-166 -90)" fill="#f2b705"/>
        </g>
      </g>
    </g>
  </g>
</svg>
