<svg id="phone-call" xmlns="http://www.w3.org/2000/svg" width="30" height="30" viewBox="0 0 30 30">
  <g id="Group_6861" data-name="Group 6861" transform="translate(0 0)">
    <path id="Path_17296" data-name="Path 17296" d="M24.069,44.255a2.957,2.957,0,0,0-2.143-.981,3.058,3.058,0,0,0-2.169.975l-2,1.994c-.165-.089-.33-.171-.488-.253-.228-.114-.444-.222-.628-.336a21.768,21.768,0,0,1-5.219-4.749,12.827,12.827,0,0,1-1.712-2.7c.52-.475,1-.969,1.471-1.444.178-.177.355-.361.533-.538a2.9,2.9,0,0,0,0-4.382L9.978,30.116c-.2-.2-.4-.4-.59-.6-.38-.393-.78-.8-1.192-1.178a3,3,0,0,0-2.124-.931,3.109,3.109,0,0,0-2.156.931l-.013.013L1.747,30.521A4.629,4.629,0,0,0,.371,33.465a11.084,11.084,0,0,0,.812,4.7,27.254,27.254,0,0,0,4.851,8.079,29.836,29.836,0,0,0,9.937,7.769,15.5,15.5,0,0,0,5.581,1.646c.133.006.273.013.4.013A4.782,4.782,0,0,0,25.61,54.1c.006-.013.019-.019.025-.032a14.4,14.4,0,0,1,1.11-1.146c.273-.26.552-.532.824-.817a3.156,3.156,0,0,0,.958-2.191,3.041,3.041,0,0,0-.977-2.172Zm2.27,6.667c-.006,0-.006.006,0,0-.247.266-.5.507-.774.772a16.66,16.66,0,0,0-1.224,1.266,3.059,3.059,0,0,1-2.384,1.007c-.1,0-.2,0-.292-.006a13.77,13.77,0,0,1-4.946-1.482,28.163,28.163,0,0,1-9.36-7.319,25.7,25.7,0,0,1-4.566-7.592,9.028,9.028,0,0,1-.71-3.964,2.9,2.9,0,0,1,.875-1.881L5.12,29.565a1.443,1.443,0,0,1,.964-.45,1.357,1.357,0,0,1,.926.443l.019.019c.387.361.755.734,1.141,1.133.2.2.4.405.6.614L10.5,33.054a1.207,1.207,0,0,1,0,1.963c-.184.184-.361.367-.545.545-.533.545-1.04,1.051-1.592,1.545-.013.013-.025.019-.032.032a1.29,1.29,0,0,0-.33,1.437l.019.057a13.873,13.873,0,0,0,2.048,3.337l.006.006a23.263,23.263,0,0,0,5.631,5.116,8.666,8.666,0,0,0,.78.424c.228.114.444.222.628.336.025.013.051.032.076.044a1.376,1.376,0,0,0,.628.158,1.357,1.357,0,0,0,.964-.437l2.169-2.165a1.435,1.435,0,0,1,.958-.475,1.292,1.292,0,0,1,.913.462l.013.013,3.494,3.489A1.251,1.251,0,0,1,26.339,50.922Z" transform="translate(-0.344 -25.671)" fill="#f2b705"/>
    <path id="Path_17297" data-name="Path 17297" d="M245.647,87.621a8.149,8.149,0,0,1,6.636,6.636.85.85,0,0,0,.842.709,1.13,1.13,0,0,0,.146-.013.856.856,0,0,0,.7-.988,9.853,9.853,0,0,0-8.029-8.029.859.859,0,0,0-.988.7A.846.846,0,0,0,245.647,87.621Z" transform="translate(-229.424 -80.485)" fill="#f2b705"/>
    <path id="Path_17298" data-name="Path 17298" d="M262.989,13.234A16.225,16.225,0,0,0,249.768.013.854.854,0,1,0,249.49,1.7,14.492,14.492,0,0,1,261.3,13.512a.85.85,0,0,0,.842.709,1.129,1.129,0,0,0,.146-.013A.839.839,0,0,0,262.989,13.234Z" transform="translate(-233.002 0)" fill="#f2b705"/>
  </g>
</svg>
