<svg xmlns="http://www.w3.org/2000/svg" xmlns:xlink="http://www.w3.org/1999/xlink" width="30" height="30" viewBox="0 0 30 30">
  <defs>
    <clipPath id="clip-path">
      <rect id="Rectangle_300" data-name="Rectangle 300" width="30" height="30" transform="translate(1176 4431)" fill="#f2b705"/>
    </clipPath>
  </defs>
  <g id="whatsapp" transform="translate(-1176 -4431)" clip-path="url(#clip-path)">
    <g id="whatsapp-2" data-name="whatsapp" transform="translate(1176.183 4431)">
      <path id="Path_17301" data-name="Path 17301" d="M158.24,144.628c-.185-.1-.4-.222-.648-.375-.141-.085-.319-.2-.507-.325a5.028,5.028,0,0,0-2.321-1.083,1.135,1.135,0,0,0-.41.073,3.961,3.961,0,0,0-1.428,1.315,7.005,7.005,0,0,1-.524.611,10.3,10.3,0,0,1-5.008-5.009,6.95,6.95,0,0,1,.614-.527,3.968,3.968,0,0,0,1.312-1.423c.27-.7-.225-1.535-1.009-2.731-.123-.188-.24-.366-.325-.506-.153-.254-.271-.464-.375-.65-.428-.761-.711-1.263-1.773-1.263a4.168,4.168,0,0,0-2.325,1.3,4.41,4.41,0,0,0-1.488,3.056c0,2.8,1.566,6.015,4.291,8.816,0,0,.009.006.014.011,2.8,2.726,6.015,4.284,8.818,4.284h0a4.4,4.4,0,0,0,3.054-1.482,4.151,4.151,0,0,0,1.3-2.317C159.5,145.339,159,145.056,158.24,144.628Zm-3.092,4.124c-2.387,0-5.3-1.449-7.791-3.87-2.422-2.492-3.869-5.4-3.87-7.792,0-1.444,1.874-2.817,2.364-2.892a1.153,1.153,0,0,1,.178.011,4.659,4.659,0,0,1,.308.507c.1.184.233.414.4.687.1.165.223.354.355.553a8.127,8.127,0,0,1,.832,1.464,5.651,5.651,0,0,1-.824.745c-.631.5-1.176.939-1.176,1.554,0,1.485,1.914,3.513,2.5,4.1s2.614,2.5,4.1,2.5c.611,0,1.044-.545,1.546-1.173a5.607,5.607,0,0,1,.749-.827,8.1,8.1,0,0,1,1.465.832c.2.131.389.255.554.355.272.164.5.293.686.4a4.661,4.661,0,0,1,.507.308,1.161,1.161,0,0,1,.011.177C157.965,146.878,156.592,148.75,155.148,148.752Z" transform="translate(-135.641 -126.863)" fill="#f2b705"/>
      <path id="Path_17302" data-name="Path 17302" d="M83.952,67.021A15.225,15.225,0,0,0,68.808,52.069,14.333,14.333,0,0,0,54.443,65.3a15.07,15.07,0,0,0,2.328,9.283l-2.407,6.506a.73.73,0,0,0,.685.983A.74.74,0,0,0,55.333,82L61.6,79.335a14.973,14.973,0,0,0,7.939,2.257h0a14.313,14.313,0,0,0,14.411-14.57Zm-5.231,9.374a12.882,12.882,0,0,1-9.18,3.773,13.544,13.544,0,0,1-7.468-2.247.73.73,0,0,0-.686-.062l-5.067,2.149,1.949-5.267a.73.73,0,0,0-.08-.661A13.258,13.258,0,0,1,59.628,57.3a12.884,12.884,0,0,1,9.181-3.773A13.766,13.766,0,0,1,82.493,67.04,12.874,12.874,0,0,1,78.721,76.395Z" transform="translate(-54.319 -52.069)" fill="#f2b705"/>
    </g>
  </g>
</svg>
